# xmcd
#
# Track frame offsets: 
#        150
#        15346
#        27621
#        53979
#        70094
#        90686
#        115088
#        137840
#        148951
#
# Disc length: 2296 seconds
#
# Revision: 0
# Processed by: cddbd v1.5.2PL0 Copyright (c) Steve Scherf et al.
# Submitted via: ExactAudioCopy v0.99pb3
#
DISCID=7e08f609
DTITLE=main-line double b - main-line double b
DYEAR=2007
DGENRE=Blues
TTITLE0=Dust my broom
TTITLE1=Since I met you baby
TTITLE2=Baby what you want me to do
TTITLE3=Everybody needs somebody...
TTITLE4=Story of the blues
TTITLE5=With a little help from my friends
TTITLE6=Come back baby
TTITLE7=Hold on I'm coming
TTITLE8=Jesus is just alright
EXTD=
EXTT0=
EXTT1=
EXTT2=
EXTT3=
EXTT4=
EXTT5=
EXTT6=
EXTT7=
EXTT8=
PLAYORDER=
